PathFileType	4	(X/Y/Z)	/Users/itak/Documents/Research/Walk-IL/dataset/trc/00536_00009.trc
DataRate	CameraRate	NumFrames	NumMarkers	Units	OrigDataRate	OrigDataStartFrame	OrigNumFrames
100.000000	100.000000	4	53	mm	100.000000	679	776
Frame#	Time	RPSI			LPSI			L3			STRN			T10			C7			CLAV			RBAK			LBAK			LSHO			LUPA			LAEL			LAOL			LWTS			LWPS			LFRA			LHPS			LHTS			RSHO			RUPA			RAEL			RAOL			RWTS			RWPS			RFRA			RIFD			RHTS			RHPS			RBHD			LFHD			RFHD			LBHD			LHIP			RHIP			RASI			LASI			LKNE			LTHI			LANK			LTIP			LTOE			LMT1			LMT5			LHEE			RKNE			RTHI			RANK			RTIP			RTOE			RMT1			RMT5			RHEE			LIFD			
		X1	Y1	Z1	X2	Y2	Z2	X3	Y3	Z3	X4	Y4	Z4	X5	Y5	Z5	X6	Y6	Z6	X7	Y7	Z7	X8	Y8	Z8	X9	Y9	Z9	X10	Y10	Z10	X11	Y11	Z11	X12	Y12	Z12	X13	Y13	Z13	X14	Y14	Z14	X15	Y15	Z15	X16	Y16	Z16	X17	Y17	Z17	X18	Y18	Z18	X19	Y19	Z19	X20	Y20	Z20	X21	Y21	Z21	X22	Y22	Z22	X23	Y23	Z23	X24	Y24	Z24	X25	Y25	Z25	X26	Y26	Z26	X27	Y27	Z27	X28	Y28	Z28	X29	Y29	Z29	X30	Y30	Z30	X31	Y31	Z31	X32	Y32	Z32	X33	Y33	Z33	X34	Y34	Z34	X35	Y35	Z35	X36	Y36	Z36	X37	Y37	Z37	X38	Y38	Z38	X39	Y39	Z39	X40	Y40	Z40	X41	Y41	Z41	X42	Y42	Z42	X43	Y43	Z43	X44	Y44	Z44	X45	Y45	Z45	X46	Y46	Z46	X47	Y47	Z47	X48	Y48	Z48	X49	Y49	Z49	X50	Y50	Z50	X51	Y51	Z51	X52	Y52	Z52	X53	Y53	Z53	

680	6.79	644.3477783203125	1019.224060058594	525.4462890625	648.0968017578125	1021.573120117188	391.9992370605469	648.0763549804688	1113.406372070312	453.0201110839844	878.2672119140625	1298.366577148438	441.9203186035156	636.1060180664062	1238.530883789062	447.4041748046875	686.7142333984375	1512.46435546875	450.1331787109375	859.6123657226562	1409.627563476562	439.2828674316406	617.6837768554688	1390.470581054688	543.843994140625	651.8591918945312	1456.533935546875	359.9048767089844	750.2784423828125	1476.529663085938	276.6006774902344	738.2313232421875	1347.687133789062	200.7793121337891	749.0269165039062	1124.166015625	182.7998199462891	662.0086059570312	1122.958374023438	234.9380187988281	817.1444702148438	871.2447509765625	226.9976501464844	768.4921264648438	854.7037353515625	156.1321105957031	764.0513305664062	1035.886962890625	175.8414764404297	769.84375	793.9237670898438	163.6182403564453	822.9798583984375	792.5436401367188	206.0662078857422	751.6895141601562	1477.28515625	605.5328979492188	735.0228271484375	1415.0322265625	675.6607055664062	731.6347045898438	1127.358764648438	731.1422119140625	675.9945678710938	1107.546875	705.3693237304688	874.2019653320312	913.087646484375	699.4124755859375	831.024658203125	892.862060546875	765.69921875	743.5084228515625	1072.905395507812	740.8929443359375	895.6549072265625	741.483642578125	708.504638671875	908.2256469726562	824.2619018554688	717.6041259765625	852.7740478515625	820.43017578125	767.3440551757812	777.2096557617188	1693.429565429688	512.5293579101562	920.65234375	1708.361083984375	362.6102600097656	916.6358032226562	1710.481323242188	507.1400756835938	788.9597778320312	1689.07421875	347.5757446289062	777.3241577148438	941.1311645507812	262.5693054199219	766.4519653320312	948.1387939453125	650.4437866210938	852.8328857421875	978.070068359375	593.0718994140625	855.6068115234375	966.1377563476562	316.1444091796875	791.432861328125	496.6924438476562	326.4061889648438	798.59619140625	661.5034790039062	289.918212890625	669.9009399414062	37.96114349365234	329.5125732421875	707.708984375	255.8469085693359	320.4286193847656	879.3893432617188	40.37710952758789	392.0151062011719	805.387451171875	45.96859359741211	424.3401184082031	791.7518920898438	37.90013885498047	316.2983703613281	600.5239868164062	42.61689758300781	382.2490234375	800.3832397460938	501.1318054199219	594.0365600585938	806.6468505859375	791.1043090820312	644.525634765625	691.1643676757812	40.0429573059082	562.2378540039062	794.5791625976562	356.609130859375	575.8170776367188	912.5383911132812	41.15509414672852	522.7484130859375	849.04150390625	44.15866851806641	481.2803955078125	822.8365478515625	40.30745697021484	584.0909423828125	637.486328125	36.42392349243164	505.5360412597656	793.6723022460938	701.3512573242188	220.0242156982422	
681	6.8	644.58203125	1019.075439453125	526.1074829101562	648.51025390625	1021.499755859375	392.6112060546875	648.362060546875	1113.267578125	453.6660461425781	878.4978637695312	1298.283569335938	442.6844787597656	636.2681274414062	1238.427978515625	448.1405029296875	686.924072265625	1512.3515625	450.7776184082031	859.8536376953125	1409.521240234375	439.9784240722656	617.8896484375	1390.373413085938	544.4962768554688	652.1389770507812	1456.407836914062	360.5384216308594	750.5398559570312	1476.342651367188	277.2662658691406	738.6281127929688	1347.442504882812	201.4637145996094	749.5096435546875	1123.930297851562	183.6187591552734	662.506591796875	1122.693481445312	235.7672882080078	817.7859497070312	871.0630493164062	227.8517456054688	769.1239624023438	854.4739379882812	157.0401611328125	764.5928955078125	1035.6591796875	176.6885833740234	770.568359375	793.7201538085938	164.5027465820312	823.7015991210938	792.3739013671875	206.9480743408203	751.9225463867188	1477.246215820312	606.1665649414062	735.2853393554688	1414.994018554688	676.349609375	732.3527221679688	1127.391723632812	731.982666015625	676.7470703125	1107.444946289062	706.2368774414062	875.3760375976562	913.422119140625	700.2067260742188	832.2521362304688	893.1303100585938	766.5640869140625	744.3284912109375	1072.983764648438	741.7914428710938	897.3017578125	741.922119140625	709.4048461914062	909.6691284179688	824.7279052734375	718.4215087890625	854.1802978515625	820.7416381835938	768.25634765625	777.5089111328125	1693.361328125	513.066650390625	921.04248046875	1708.186157226562	363.2236022949219	916.9219360351562	1710.3447265625	507.7798767089844	789.3508911132812	1688.932006835938	348.1442565917969	777.666015625	941.1566162109375	263.306396484375	767.3619995117188	947.9852905273438	650.8329467773438	853.0694580078125	977.895751953125	593.791748046875	855.9866943359375	966.1380615234375	316.8212280273438	791.7642211914062	496.6956176757812	326.6660461425781	798.9717407226562	661.6051635742188	290.2069091796875	669.8947143554688	37.95446014404297	329.5068054199219	707.8756713867188	255.9522399902344	320.3463439941406	879.3855590820312	40.39704513549805	391.9809265136719	805.3905639648438	45.99349594116211	424.2992858886719	791.7725830078125	37.8656005859375	316.2584838867188	600.5072021484375	42.68458557128906	382.2760925292969	800.4524536132812	501.0028991699219	594.2846069335938	807.3441772460938	790.8452758789062	644.8192749023438	691.1480712890625	40.03278350830078	562.2166137695312	794.5982666015625	356.4407043457031	575.8844604492188	912.5380859375	41.12567901611328	522.7291870117188	849.0674438476562	44.14719390869141	481.2135925292969	822.8379516601562	40.31680679321289	584.028564453125	637.4617919921875	36.34918975830078	505.5242309570312	794.4888916015625	701.1546020507812	220.9560241699219	
682	6.81	644.771484375	1018.942810058594	526.7510375976562	648.9071044921875	1021.443725585938	393.1756591796875	648.5955200195312	1113.13720703125	454.3018798828125	878.7008666992188	1298.212524414062	443.4071350097656	636.4425659179688	1238.337646484375	448.8362121582031	687.102294921875	1512.236206054688	451.4192504882812	860.0723266601562	1409.417724609375	440.6432189941406	618.0653686523438	1390.278686523438	545.136474609375	652.381103515625	1456.30029296875	361.1569519042969	750.7728881835938	1476.169555664062	277.896728515625	738.9871215820312	1347.213989257812	202.1362762451172	750.0667724609375	1123.719848632812	184.4180908203125	663.037353515625	1122.418579101562	236.5848999023438	818.6475830078125	870.959228515625	228.7391967773438	770.0127563476562	854.2799682617188	157.964599609375	765.2425537109375	1035.462158203125	177.540283203125	771.594970703125	793.5521240234375	165.4213562011719	824.7093505859375	792.2943725585938	207.8859710693359	752.1367797851562	1477.211669921875	606.7857055664062	735.5294189453125	1414.9580078125	677.0311889648438	733.0313720703125	1127.412475585938	732.780029296875	677.4674682617188	1107.362426757812	707.08154296875	876.4539184570312	913.707275390625	700.9237060546875	833.3892822265625	893.359619140625	767.361328125	745.1159057617188	1073.048217773438	742.6213989257812	898.7936401367188	742.3019409179688	710.1979370117188	910.9818115234375	825.1167602539062	719.1447143554688	855.4915161132812	821.0137329101562	769.0889282226562	777.8007202148438	1693.294799804688	513.5805053710938	921.4200439453125	1708.004272460938	363.8169250488281	917.1937255859375	1710.20703125	508.4039001464844	789.7130737304688	1688.79052734375	348.7120361328125	777.9508666992188	941.1845092773438	263.9967041015625	768.2470092773438	947.8021240234375	651.187255859375	853.289306640625	977.7274780273438	594.4470825195312	856.2979125976562	966.1461791992188	317.4547729492188	792.0113525390625	496.7071838378906	326.906494140625	799.2861328125	661.696533203125	290.4541320800781	669.8871459960938	37.95153045654297	329.5104675292969	708.0018920898438	256.0541687011719	320.2715759277344	879.3778076171875	40.42048645019531	391.9501647949219	805.3933715820312	46.01596832275391	424.2599792480469	791.7838134765625	37.8381233215332	316.2254028320312	600.4819946289062	42.73888778686523	382.3220520019531	800.5576171875	500.867431640625	594.5055541992188	808.0327758789062	790.5908813476562	645.060302734375	691.1338500976562	40.02231597900391	562.1976318359375	794.6431274414062	356.28125	575.9373779296875	912.5430908203125	41.10044097900391	522.7034912109375	849.0757446289062	44.12609100341797	481.1600341796875	822.847412109375	40.32901000976562	583.95849609375	637.4405517578125	36.28047561645508	505.5166015625	795.71923828125	701.0383911132812	221.8977508544922	
683	6.82	644.927978515625	1018.823791503906	527.371826171875	649.26904296875	1021.403137207031	393.7012634277344	648.7718505859375	1113.019775390625	454.9345092773438	878.8765258789062	1298.150268554688	444.0847473144531	636.6255493164062	1238.259887695312	449.4898986816406	687.25146484375	1512.12060546875	452.0572814941406	860.2723388671875	1409.320190429688	441.2717895507812	618.2134399414062	1390.182739257812	545.7744140625	652.57861328125	1456.208862304688	361.7660522460938	750.9769897460938	1476.015380859375	278.4933776855469	739.3007202148438	1347.006958007812	202.8027191162109	750.6895141601562	1123.533325195312	185.19970703125	663.6026000976562	1122.137329101562	237.3943176269531	819.7269897460938	870.9379272460938	229.6572875976562	771.1483154296875	854.1255493164062	158.9065856933594	765.9952392578125	1035.298950195312	178.3949890136719	772.9002075195312	793.4197998046875	166.3876342773438	825.9926147460938	792.3072509765625	208.8780517578125	752.332275390625	1477.180419921875	607.39404296875	735.7581787109375	1414.929565429688	677.7014770507812	733.6680908203125	1127.420288085938	733.5354614257812	678.1554565429688	1107.303344726562	707.9059448242188	877.4246215820312	913.93994140625	701.5794677734375	834.4351806640625	893.5470581054688	768.0887451171875	745.8660888671875	1073.093872070312	743.3786010742188	900.1231079101562	742.619140625	710.8901977539062	912.154296875	825.42822265625	719.7861938476562	856.7073364257812	821.2481689453125	769.8377685546875	778.080322265625	1693.22998046875	514.0789184570312	921.7764892578125	1707.821166992188	364.3955688476562	917.448486328125	1710.071411132812	509.0133056640625	790.0423583984375	1688.653076171875	349.2810363769531	778.1976318359375	941.214111328125	264.6292419433594	769.011474609375	947.5974731445312	651.541748046875	853.4931030273438	977.5703125	595.0364990234375	856.5424194335938	966.1608276367188	318.0450744628906	792.1837768554688	496.7270202636719	327.1316528320312	799.5438842773438	661.7748413085938	290.6640319824219	669.8798217773438	37.95411682128906	329.5237121582031	708.0838623046875	256.1449890136719	320.2199096679688	879.3651733398438	40.447998046875	391.9226989746094	805.3953857421875	46.03524780273438	424.2237548828125	791.7865600585938	37.81676483154297	316.19970703125	600.4525756835938	42.77551651000977	382.3810729980469	800.6891479492188	500.7267761230469	594.7026977539062	808.5742797851562	790.3602294921875	645.31103515625	691.1221923828125	40.01052474975586	562.1813354492188	794.7030029296875	356.1331787109375	575.9804077148438	912.552978515625	41.08087158203125	522.6721801757812	849.06494140625	44.09148788452148	481.1199035644531	822.8687744140625	40.34634399414062	583.8779907226562	637.4234619140625	36.21445083618164	505.5128173828125	797.3369750976562	701.003662109375	222.8625640869141	
